PathFileType	4	(X/Y/Z)	C:/Users/opensim2020/Desktop/walking_exp_matlab/subject03_walking08_straight_03.trc																																																																																																																																																							
DataRate	CameraRate	NumFrames	NumMarkers	Units	OrigDataRate	OrigDataStartFrame	OrigNumFrames																																																																																																																																																			
100	100	4	51	mm	100	2469	299																																																																																																																																																			
Frame#	Time	LFHD			RFHD			LBHD			RBHD			C7			T10			CLAV			STRN			RBAK			LSHO			LUPA			LELB			LFRM			LWRA			LWRB			LFIN			RSHO			RUPA			RELB			RFRM			RWRA			RWRB			RFIN			LASI			RASI			LPSI			RPSI			LTHI			LKNE			LTIB			LANK			LHEE			LTOE			RTHI			RKNE			RTIB			RANK			RHEE			RTOE			*39			*40			*41			*42			*43			*44			*45			*46			*47			*48			*49			*50		
		X1	Y1	Z1	X2	Y2	Z2	X3	Y3	Z3	X4	Y4	Z4	X5	Y5	Z5	X6	Y6	Z6	X7	Y7	Z7	X8	Y8	Z8	X9	Y9	Z9	X10	Y10	Z10	X11	Y11	Z11	X12	Y12	Z12	X13	Y13	Z13	X14	Y14	Z14	X15	Y15	Z15	X16	Y16	Z16	X17	Y17	Z17	X18	Y18	Z18	X19	Y19	Z19	X20	Y20	Z20	X21	Y21	Z21	X22	Y22	Z22	X23	Y23	Z23	X24	Y24	Z24	X25	Y25	Z25	X26	Y26	Z26	X27	Y27	Z27	X28	Y28	Z28	X29	Y29	Z29	X30	Y30	Z30	X31	Y31	Z31	X32	Y32	Z32	X33	Y33	Z33	X34	Y34	Z34	X35	Y35	Z35	X36	Y36	Z36	X37	Y37	Z37	X38	Y38	Z38	X39	Y39	Z39	X40	Y40	Z40	X41	Y41	Z41	X42	Y42	Z42	X43	Y43	Z43	X44	Y44	Z44	X45	Y45	Z45	X46	Y46	Z46	X47	Y47	Z47	X48	Y48	Z48	X49	Y49	Z49	X50	Y50	Z50	X51	Y51	Z51
																																																																																																																																																										
38	0.37	-708.54388	1625.43665	-1088.82568	-729.71259	1633.30457	-956.97015	-827.8584	1563.7821	-1101.67834	-844.42218	1571.49182	-971.47571	-853.31995	1417.72961	-1036.02478	-895.85559	1108.43152	-1036.00427	-732.69574	1338.8335	-1025.00452	-693.91394	1172.05005	-1023.91925	-914.25311	1247.97913	-936.69861	-762.77399	1373.03308	-1183.99683	-782.02509	1174.67688	-1252.7915	-786.52057	1051.16394	-1263.10254	-769.80273	921.70111	-1257.46826	-763.12671	802.87738	-1222.9657	-780.57135	808.70508	-1276.04028	-777.44153	723.92358	-1261.31641	-781.7962	1366.6344	-869.24713	-771.38031	1143.99487	-795.79163	-751.61206	1032.93689	-781.6922	-735.91711	896.73004	-775.01398	-708.50781	798.62671	-807.22046	-736.96082	796.79443	-761.33411	-721.32874	722.26776	-771.78955	-727.44757	938.20129	-1137.67126	-754.28699	932.3316	-902.76141	-893.16602	971.27222	-1107.24976	-907.14777	972.40784	-957.84698	-767.21997	640.08551	-1181.26135	-745.81537	463.94089	-1133.0249	-774.72278	271.27673	-1133.50452	-771.54602	63.42869	-1088.19336	-811.26788	29.01422	-1054.17151	-618.4577	30.03177	-1059.36536	-816.01447	636.60089	-857.02051	-796.34601	456.90707	-873.43976	-939.95868	330.86227	-868.27271	-1100.39001	185.28441	-907.14758	-1149.98975	196.11215	-961.32733	-1045.80078	50.81071	-927.92383	NaN	NaN	NaN	NaN	NaN	NaN	NaN	NaN	NaN	NaN	NaN	NaN	NaN	NaN	NaN	NaN	NaN	NaN	NaN	NaN	NaN	NaN	NaN	NaN	NaN	NaN	NaN	NaN	NaN	NaN	NaN	NaN	NaN	NaN	NaN	NaN
39	0.38	-701.17285	1625.68347	-1089.41553	-722.6615	1633.69373	-957.70404	-820.40955	1563.95593	-1102.55688	-837.28943	1571.80945	-972.3894	-846.0191	1418.1615	-1037.04553	-888.64301	1108.75903	-1037.1936	-725.70483	1339.14465	-1025.49707	-687.01733	1172.30188	-1024.07263	-907.86884	1247.96887	-938.67004	-755.0141	1372.90344	-1184.58936	-771.59448	1174.41797	-1253.8092	-774.33771	1051.06445	-1264.6001	-756.9859	921.44073	-1259.37231	-750.40601	802.58948	-1225.33411	-766.63306	808.63159	-1278.68079	-762.69403	723.96075	-1264.41907	-775.89636	1366.51147	-869.74658	-765.89996	1143.73047	-796.49695	-746.30231	1032.60791	-782.44965	-730.97394	896.3916	-775.54822	-703.87842	798.19336	-808.06653	-732.25153	796.46106	-762.19659	-716.65472	721.94379	-772.69647	-720.11749	938.72009	-1138.81287	-747.05707	932.52386	-903.61371	-886.03833	971.67102	-1108.02698	-899.99377	972.30408	-958.75391	-761.05334	640.3609	-1181.64563	-741.78253	464.02136	-1133.67969	-773.02094	271.33408	-1133.87024	-771.54333	63.53909	-1088.18945	-811.29651	29.07873	-1054.14722	-618.40417	29.91911	-1059.28296	-805.04956	637.30243	-857.7937	-781.39966	458.03259	-873.84204	-924.71918	332.15479	-869.03802	-1085.21326	186.56613	-908.23572	-1134.9574	196.3248	-962.82629	-1028.47742	53.14666	-926.41138	NaN	NaN	NaN	NaN	NaN	NaN	NaN	NaN	NaN	NaN	NaN	NaN	NaN	NaN	NaN	NaN	NaN	NaN	NaN	NaN	NaN	NaN	NaN	NaN	NaN	NaN	NaN	NaN	NaN	NaN	NaN	NaN	NaN	NaN	NaN	NaN
40	0.39	-693.84198	1625.92078	-1090.0166	-715.58221	1634.09607	-958.37933	-813.02576	1564.10522	-1103.36853	-830.20056	1572.13232	-973.2583	-838.88226	1418.62	-1037.97034	-881.58838	1109.13818	-1038.34656	-718.8028	1339.396	-1025.94226	-680.01154	1172.59753	-1024.67871	-901.56427	1248.09192	-940.48615	-747.43176	1372.93628	-1185.24414	-761.23932	1174.41064	-1254.75281	-762.32336	1050.99402	-1265.98608	-743.94135	921.62573	-1261.17981	-736.93927	803.02344	-1227.61804	-752.40625	808.73199	-1281.23206	-747.56659	724.23773	-1267.56274	-769.91235	1366.50037	-870.23291	-760.64923	1143.62378	-797.12341	-741.13605	1032.42908	-783.19812	-725.91724	896.13501	-776.70453	-699.06763	797.97107	-809.13922	-727.36877	796.25427	-763.12775	-711.6413	721.86847	-773.60577	-713.11987	939.19861	-1139.97815	-739.82385	933.02631	-904.5329	-878.98517	971.88794	-1108.75085	-892.88324	972.45844	-959.63214	-754.99054	640.54102	-1181.64465	-737.48175	464.3895	-1133.91333	-771.21759	271.38721	-1134.17981	-771.51672	63.66587	-1088.20691	-811.32318	29.18602	-1054.14917	-618.3833	29.87438	-1059.22046	-793.48541	637.78748	-858.78717	-766.71234	459.32224	-874.31555	-909.33282	333.02731	-869.7995	-1069.32983	187.04242	-909.46661	-1119.39941	195.50336	-964.39166	-1010.12567	54.87897	-925.4967	NaN	NaN	NaN	NaN	NaN	NaN	NaN	NaN	NaN	NaN	NaN	NaN	NaN	NaN	NaN	NaN	NaN	NaN	NaN	NaN	NaN	NaN	NaN	NaN	NaN	NaN	NaN	NaN	NaN	NaN	NaN	NaN	NaN	NaN	NaN	NaN
41	0.4	-686.56006	1626.11572	-1090.61206	-708.56879	1634.40674	-958.99426	-805.70239	1564.29492	-1104.13757	-823.10822	1572.42517	-974.07898	-831.86719	1418.99255	-1038.88831	-874.59167	1109.47058	-1039.39246	-711.92346	1339.67749	-1026.30237	-673.13422	1172.87537	-1025.13782	-895.24646	1248.26208	-942.10791	-739.90167	1373.08911	-1185.81116	-751.03101	1174.69263	-1255.65442	-750.20105	1051.3678	-1267.43933	-730.8689	921.98529	-1262.87732	-724.06976	802.9762	-1229.94055	-737.96869	809.26025	-1283.83606	-732.00641	724.86426	-1270.67773	-764.01581	1366.60815	-870.74829	-755.56921	1143.64893	-797.73035	-736.08075	1032.38794	-783.96985	-720.87915	896.08801	-777.71179	-694.17169	798.03076	-810.3064	-722.32935	796.16638	-764.2536	-706.3277	722.06689	-774.58075	-706.20203	939.58972	-1141.10254	-732.56207	933.83154	-905.50452	-871.9176	972.3266	-1109.52673	-885.76801	972.84399	-960.49207	-749.50311	640.5376	-1182.19653	-733.29401	464.31262	-1134.33301	-769.1123	271.54797	-1134.53162	-771.46283	63.79277	-1088.23743	-811.35095	29.23341	-1054.14709	-618.36554	29.80299	-1059.14941	-781.99475	638.35803	-859.69391	-752.3064	460.68155	-874.76965	-893.85535	333.52243	-870.80646	-1052.90161	186.68982	-910.75323	-1103.21313	193.61559	-965.86224	-990.62366	56.04623	-924.72998	NaN	NaN	NaN	NaN	NaN	NaN	NaN	NaN	NaN	NaN	NaN	NaN	NaN	NaN	NaN	NaN	NaN	NaN	NaN	NaN	NaN	NaN	NaN	NaN	NaN	NaN	NaN	NaN	NaN	NaN	NaN	NaN	NaN	NaN	NaN	NaN
